<!-- plucked from https://github.com/periodo/periodo-client/blob/master/images/imls_logo_2c.svg -->
<svg xmlns="http://www.w3.org/2000/svg" width="874.8" height="324.425" viewBox="0 0 874.79999 324.42499">
    <path d="M115.888 161.933c0-5.662 4.589-10.25 10.252-10.25 5.659 0 10.244 4.588 10.244 10.25 0 5.658-4.585 10.242-10.244 10.242-5.663 0-10.252-4.584-10.252-10.242M92.199 161.933c0-5.093 4.127-9.222 9.218-9.222 5.096 0 9.227 4.129 9.227 9.221 0 5.092-4.131 9.217-9.227 9.217a9.216 9.216 0 0 1-9.218-9.216M69.331 161.933c0-4.583 3.719-8.3 8.306-8.3 4.584 0 8.294 3.717 8.294 8.3a8.293 8.293 0 0 1-8.294 8.297c-4.587 0-8.306-3.714-8.306-8.297M46.61 161.933c0-4.127 3.35-7.472 7.478-7.472a7.467 7.467 0 0 1 7.465 7.471 7.462 7.462 0 0 1-7.465 7.468c-4.128 0-7.479-3.339-7.479-7.468M23.579 161.933a6.724 6.724 0 1 1 13.45 0 6.723 6.723 0 0 1-6.723 6.72c-3.713 0-6.727-3.012-6.727-6.72M0 161.933a6.052 6.052 0 0 1 6.053-6.05 6.053 6.053 0 0 1 6.054 6.05c0 3.335-2.715 6.045-6.054 6.045-3.338 0-6.053-2.71-6.053-6.046M159.366 115.886c5.66 0 10.255 4.593 10.255 10.243 0 5.667-4.595 10.25-10.255 10.25-5.656 0-10.241-4.583-10.241-10.25 0-5.65 4.585-10.243 10.241-10.243M159.366 92.191c5.093 0 9.224 4.132 9.224 9.225 0 5.094-4.131 9.222-9.224 9.222-5.091 0-9.219-4.128-9.219-9.222 0-5.093 4.128-9.225 9.22-9.225M159.366 69.334a8.298 8.298 0 0 1 8.305 8.301 8.304 8.304 0 0 1-8.305 8.301c-4.584 0-8.295-3.719-8.295-8.301a8.291 8.291 0 0 1 8.295-8.301M159.366 46.609a7.474 7.474 0 0 1 7.475 7.472 7.467 7.467 0 0 1-7.475 7.471 7.463 7.463 0 0 1-7.469-7.47 7.47 7.47 0 0 1 7.47-7.473M159.366 23.584a6.724 6.724 0 0 1 6.728 6.72c0 3.712-3.01 6.72-6.728 6.72a6.72 6.72 0 1 1 0-13.44M159.366-.002a6.058 6.058 0 0 1 6.058 6.055c0 3.343-2.711 6.04-6.058 6.04a6.043 6.043 0 0 1-6.052-6.04 6.057 6.057 0 0 1 6.052-6.055M99.582 134.12c1.926-4.174 6.853-6.005 11.015-4.079 4.16 1.914 5.984 6.844 4.066 11.011a8.295 8.295 0 0 1-11.004 4.075 8.302 8.302 0 0 1-4.077-11.007M78.945 124.606c1.724-3.736 6.173-5.393 9.918-3.653a7.46 7.46 0 0 1 3.658 9.905c-1.72 3.753-6.157 5.398-9.898 3.663a7.477 7.477 0 0 1-3.678-9.915M58.024 114.974c1.551-3.361 5.552-4.838 8.92-3.288 3.369 1.549 4.862 5.539 3.3 8.912-1.56 3.378-5.55 4.86-8.921 3.298-3.366-1.558-4.855-5.54-3.3-8.922M36.606 105.125c1.402-3.035 4.995-4.374 8.036-2.97a6.06 6.06 0 0 1 2.96 8.026 6.038 6.038 0 0 1-8.027 2.963c-3.032-1.39-4.368-4.994-2.969-8.019M134.905 99.339c4.351-1.476 9.069.847 10.531 5.197 1.469 4.334-.856 9.049-5.2 10.52-4.34 1.478-9.055-.846-10.52-5.192-1.485-4.338.853-9.049 5.189-10.525M127.614 77.816c3.9-1.32 8.162.772 9.478 4.689 1.33 3.904-.773 8.146-4.68 9.468-3.903 1.333-8.154-.762-9.46-4.66a7.473 7.473 0 0 1 4.662-9.497M120.214 56.012a6.718 6.718 0 0 1 8.524 4.21c1.195 3.5-.678 7.33-4.197 8.52a6.711 6.711 0 0 1-8.528-4.215c-1.188-3.503.68-7.33 4.201-8.515M112.637 33.68c3.167-1.067 6.618.625 7.687 3.79a6.072 6.072 0 0 1-3.795 7.676 6.024 6.024 0 0 1-7.667-3.8c-1.074-3.147.623-6.596 3.775-7.666M127.029 128.601c-4.008 4.005-4.017 10.493-.008 14.494 3.994 4.009 10.49 4.004 14.49.009 4.008-4.005 4.008-10.493.007-14.493-4-4.005-10.483-4.013-14.49-.01M110.288 111.836c-3.614 3.594-3.614 9.439-.008 13.044 3.595 3.6 9.435 3.6 13.033.013a9.222 9.222 0 0 0 .006-13.052c-3.597-3.605-9.435-3.605-13.031-.005M94.13 95.663c-3.246 3.235-3.253 8.492-.016 11.74a8.312 8.312 0 0 0 11.747.005c3.243-3.25 3.243-8.497 0-11.737-3.23-3.248-8.495-3.257-11.731-.008M78.068 79.58c-2.916 2.929-2.923 7.655-.007 10.57a7.47 7.47 0 0 0 10.572.005c2.916-2.917 2.923-7.646 0-10.561a7.46 7.46 0 0 0-10.565-.014M61.79 63.283a6.744 6.744 0 0 0-.008 9.522c2.625 2.615 6.88 2.615 9.512 0a6.725 6.725 0 0 0 .006-9.502 6.726 6.726 0 0 0-9.51-.02M45.124 46.6a6.07 6.07 0 0 0 0 8.574c2.362 2.36 6.189 2.351 8.554-.009 2.362-2.351 2.37-6.182.006-8.552a6.055 6.055 0 0 0-8.56-.013M159.486 208.535c-5.66 0-10.25-4.587-10.25-10.251 0-5.658 4.59-10.241 10.25-10.241 5.662 0 10.245 4.583 10.245 10.24 0 5.665-4.583 10.252-10.245 10.252M159.486 232.226a9.22 9.22 0 0 1-9.218-9.22c0-5.094 4.127-9.222 9.218-9.222 5.092 0 9.22 4.128 9.22 9.222a9.22 9.22 0 0 1-9.22 9.22M159.486 255.094c-4.582 0-8.297-3.714-8.297-8.308 0-4.581 3.715-8.291 8.297-8.291 4.584 0 8.3 3.71 8.3 8.291a8.3 8.3 0 0 1-8.3 8.308M159.486 277.813a7.468 7.468 0 0 1-7.468-7.47 7.47 7.47 0 1 1 14.938 0 7.468 7.468 0 0 1-7.47 7.47M159.486 300.849a6.73 6.73 0 0 1-6.727-6.727 6.724 6.724 0 0 1 6.727-6.724 6.723 6.723 0 0 1 6.723 6.724 6.73 6.73 0 0 1-6.723 6.727M159.486 324.425a6.05 6.05 0 0 1-6.047-6.055 6.053 6.053 0 0 1 6.047-6.051 6.057 6.057 0 0 1 6.049 6.05 6.055 6.055 0 0 1-6.049 6.056M134.586 222.896c-4.171-1.921-6.001-6.853-4.072-11.011 1.912-4.16 6.84-5.987 11.015-4.07a8.301 8.301 0 0 1 4.065 11.009c-1.914 4.167-6.841 5.985-11.008 4.072M125.076 243.534c-3.739-1.721-5.39-6.173-3.657-9.918a7.465 7.465 0 0 1 9.909-3.658c3.753 1.722 5.397 6.16 3.663 9.896a7.477 7.477 0 0 1-9.915 3.68M115.446 264.454c-3.366-1.549-4.838-5.549-3.29-8.92 1.548-3.366 5.541-4.856 8.912-3.298 3.382 1.56 4.862 5.55 3.3 8.919-1.557 3.369-5.543 4.857-8.922 3.299M105.6 285.871c-3.037-1.397-4.377-4.99-2.978-8.03a6.059 6.059 0 0 1 8.032-2.96 6.033 6.033 0 0 1 2.959 8.026c-1.39 3.03-4.993 4.364-8.014 2.964M99.416 188.156c-1.476-4.35.85-9.07 5.202-10.527 4.334-1.471 9.047.857 10.517 5.197a8.284 8.284 0 0 1-5.19 10.521c-4.337 1.484-9.05-.853-10.528-5.19M77.9 195.45c-1.322-3.897.769-8.162 4.687-9.48 3.902-1.331 8.145.774 9.465 4.679 1.335 3.91-.758 8.155-4.66 9.461a7.467 7.467 0 0 1-9.493-4.66M56.093 202.85a6.723 6.723 0 0 1 4.209-8.524c3.5-1.193 7.33.679 8.524 4.197a6.711 6.711 0 0 1-4.22 8.526c-3.5 1.19-7.33-.683-8.513-4.2M33.761 210.425c-1.065-3.165.625-6.619 3.79-7.685 3.16-1.067 6.596.63 7.676 3.792a6.029 6.029 0 0 1-3.797 7.67c-3.153 1.073-6.6-.627-7.669-3.777M127.517 194.284c4.006 4.01 10.492 4.02 14.496.011 4.007-3.991 4.003-10.489.007-14.494-4.003-4.005-10.49-4.005-14.49-.004a10.233 10.233 0 0 0-.013 14.487M110.754 211.024c3.597 3.617 9.44 3.617 13.044.01 3.597-3.595 3.598-9.431.01-13.031a9.22 9.22 0 0 0-13.05-.01c-3.605 3.6-3.605 9.44-.004 13.03M94.58 227.188a8.296 8.296 0 0 0 11.738.007c3.247-3.241 3.247-8.491.005-11.744-3.248-3.242-8.496-3.242-11.736 0-3.244 3.237-3.254 8.492-.007 11.737M78.498 243.242c2.927 2.917 7.651 2.924 10.567.01a7.465 7.465 0 0 0 .007-10.57c-2.915-2.917-7.644-2.924-10.56 0-2.922 2.915-2.934 7.64-.014 10.56M62.202 259.526c2.63 2.633 6.888 2.624 9.517.009 2.622-2.625 2.622-6.88.004-9.514a6.735 6.735 0 0 0-9.508-.009 6.729 6.729 0 0 0-.013 9.514M45.52 276.191a6.073 6.073 0 0 0 8.572 0c2.358-2.36 2.351-6.194-.007-8.556a6.054 6.054 0 0 0-8.556-.01c-2.37 2.37-2.37 6.206-.009 8.566" fill="#396c4f"/>
    <path d="M257.563 166.896c-.374-8.117-.84-17.821-.747-26.405h-.28a335.396 335.396 0 0 1-7.465 24.073l-9.236 27.246h-8.771l-8.398-26.872c-2.426-8.025-4.665-16.61-6.345-24.447h-.186c-.28 8.211-.652 18.195-1.12 26.779l-1.399 25.285h-10.73l4.199-62.888H222.2l8.211 25.287a318.024 318.024 0 0 1 5.785 21.832h.28c1.679-6.81 3.825-14.555 6.252-21.926l8.677-25.192h14.928l3.64 62.887h-11.197l-1.214-25.659M318.118 178.933c0 5.412.186 9.89.372 13.622h-9.984l-.56-6.811h-.28c-1.958 3.172-6.437 7.839-14.647 7.839-8.211 0-15.769-4.945-15.769-19.783v-26.684h11.476v24.725c0 7.559 2.425 12.41 8.49 12.41 4.665 0 7.652-3.172 8.772-6.159.466-.932.653-2.238.653-3.545v-27.43h11.477v31.816M327.913 181.919c2.52 1.586 7.465 3.359 11.57 3.359 5.038 0 7.277-2.147 7.277-5.132 0-3.078-1.865-4.572-7.464-6.625-8.864-2.986-12.502-7.837-12.502-13.25 0-8.023 6.624-14.181 17.167-14.181 5.039 0 9.424 1.212 12.13 2.705l-2.334 8.025c-1.865-1.12-5.597-2.612-9.61-2.612-4.105 0-6.345 2.052-6.345 4.852 0 2.891 2.147 4.197 7.932 6.344 8.303 2.892 12.036 7.091 12.13 13.81 0 8.302-6.438 14.274-18.475 14.274-5.505 0-10.45-1.305-13.809-3.172l2.332-8.397M373.257 173.055c.282 8.21 6.72 11.756 13.997 11.756 5.318 0 9.05-.84 12.596-2.054l1.68 7.84c-3.919 1.68-9.331 2.89-15.863 2.89-14.742 0-23.42-9.05-23.42-22.952 0-12.596 7.652-24.445 22.208-24.445 14.741 0 19.594 12.13 19.594 22.113 0 2.146-.187 3.826-.374 4.852h-30.418zm19.97-8.024c.092-4.2-1.774-11.104-9.424-11.104-7.093 0-10.078 6.438-10.545 11.104h19.968M451.82 178.933c0 5.412.186 9.89.374 13.622h-9.984l-.56-6.811h-.28c-1.96 3.172-6.439 7.839-14.649 7.839-8.211 0-15.769-4.945-15.769-19.783v-26.684h11.477v24.725c0 7.559 2.426 12.41 8.491 12.41 4.665 0 7.65-3.172 8.77-6.159.467-.932.654-2.238.654-3.545v-27.43h11.476v31.816M460.495 160.645c0-5.225-.185-9.61-.371-13.529h9.796l.56 6.718h.279c2.146-3.546 6.252-7.744 13.997-7.744 5.972 0 10.637 3.359 12.595 8.398h.187c1.587-2.52 3.452-4.385 5.506-5.693 2.611-1.772 5.505-2.705 9.33-2.705 7.464 0 15.115 5.131 15.115 19.688v26.777h-11.196v-25.099c0-7.557-2.613-12.036-8.118-12.036-3.919 0-6.811 2.8-8.024 6.065-.373 1.026-.56 2.52-.56 3.825v27.245h-11.196v-26.311c0-6.345-2.52-10.824-7.839-10.824-4.291 0-7.183 3.359-8.303 6.439a13.1 13.1 0 0 0-.56 3.825v26.871h-11.198v-31.91M552.102 187.644c0 1.846.084 3.652.335 4.911h-4.66l-.377-2.266h-.128c-1.216 1.595-3.357 2.729-6.045 2.729-4.115 0-6.423-2.982-6.423-6.09 0-5.12 4.576-7.766 12.133-7.724v-.337c0-1.343-.546-3.568-4.156-3.568-2.016 0-4.115.63-5.501 1.512l-1.006-3.36c1.511-.924 4.156-1.805 7.388-1.805 6.55 0 8.44 4.156 8.44 8.649v7.349zm-5.04-5.081c-3.65-.043-7.137.715-7.137 3.82 0 2.016 1.302 2.94 2.94 2.94 2.1 0 3.569-1.344 4.072-2.814.125-.378.125-.755.125-1.134v-2.813M557.56 178.196c0-2.351-.084-4.325-.168-6.088h4.493l.252 3.065h.127c.922-1.595 3.147-3.527 6.548-3.527 3.57 0 7.264 2.31 7.264 8.775v12.134h-5.164v-11.546c0-2.939-1.092-5.164-3.906-5.164-2.056 0-3.484 1.469-4.03 3.023-.167.42-.251 1.05-.251 1.637v12.05h-5.165v-14.359M600.429 162.704v24.1c0 2.1.084 4.366.169 5.751h-4.578l-.252-3.232h-.084c-1.218 2.267-3.694 3.695-6.634 3.695-4.911 0-8.775-4.158-8.775-10.455-.041-6.844 4.24-10.917 9.154-10.917 2.812 0 4.827 1.134 5.752 2.645h.084v-11.587h5.164zm-5.164 17.927c0-.42-.043-.965-.128-1.385-.46-1.973-2.097-3.611-4.45-3.611-3.317 0-5.163 2.939-5.163 6.718 0 3.778 1.846 6.507 5.122 6.507 2.099 0 3.946-1.426 4.45-3.652.126-.463.169-.965.169-1.512v-3.065M609.824 129.668H621.3v53.277h25.845v9.61h-37.322v-62.888M659.183 140.585c-3.827 0-6.344-2.8-6.344-6.159 0-3.545 2.611-6.251 6.437-6.251 3.919 0 6.344 2.706 6.438 6.251 0 3.359-2.519 6.159-6.438 6.159h-.093zm-5.692 51.97v-45.439h11.477v45.439H653.49M673.645 126.216h11.476v27.152h.187c2.798-4.385 7.743-7.278 14.556-7.278 11.102 0 19.033 9.236 18.94 23.046 0 16.329-10.356 24.447-20.62 24.447-5.878 0-11.104-2.24-14.369-7.84h-.188l-.558 6.812h-9.798c.188-3.078.374-8.117.374-12.689v-53.65zm11.476 47.584c0 .935.094 1.867.279 2.708 1.214 4.665 5.226 8.023 10.171 8.023 7.184 0 11.57-5.691 11.57-14.928 0-8.025-3.826-14.555-11.477-14.555-4.664 0-8.956 3.358-10.169 8.396-.188.84-.374 1.866-.374 2.986v7.37M726.361 161.765c0-6.159-.093-10.637-.373-14.649h9.89l.467 8.584h.28c2.239-6.345 7.558-9.61 12.502-9.61 1.12 0 1.774.093 2.707.28v10.73c-1.026-.187-2.054-.28-3.453-.28-5.412 0-9.237 3.451-10.263 8.678-.187 1.025-.28 2.238-.28 3.452v23.605H726.36v-30.79M792.98 181.639c0 4.105.186 8.117.745 10.916h-10.356l-.84-5.039h-.279c-2.706 3.547-7.465 6.067-13.436 6.067-9.145 0-14.275-6.625-14.275-13.53 0-11.384 10.17-17.262 26.964-17.17v-.745c0-2.985-1.213-7.93-9.238-7.93-4.477 0-9.142 1.398-12.222 3.358l-2.24-7.464c3.36-2.053 9.238-4.012 16.422-4.012 14.555 0 18.755 9.236 18.755 19.22v16.329zm-11.196-11.29c-8.118-.093-15.863 1.586-15.863 8.491 0 4.479 2.893 6.53 6.532 6.53 4.665 0 7.93-2.984 9.05-6.251.28-.839.28-1.679.28-2.518v-6.252M801.378 161.765c0-6.159-.095-10.637-.374-14.649h9.89l.466 8.584h.28c2.24-6.345 7.558-9.61 12.502-9.61 1.12 0 1.773.093 2.708.28v10.73c-1.028-.187-2.054-.28-3.453-.28-5.412 0-9.238 3.451-10.263 8.678-.188 1.025-.281 2.238-.281 3.452v23.605h-11.475v-30.79M842.056 147.116l8.118 24.353c.932 2.8 1.958 6.251 2.611 8.77h.28c.654-2.519 1.492-5.97 2.426-8.864l7.091-24.259h12.224l-11.384 30.976c-6.252 16.983-10.45 24.54-15.768 29.205-4.573 3.919-9.238 5.412-12.037 5.786l-2.612-9.61c1.96-.467 4.293-1.494 6.624-3.173 2.146-1.399 4.76-4.105 6.345-7.184.373-.84.653-1.494.653-2.054 0-.466-.092-1.118-.56-2.238l-16.702-41.708h12.691M281.121 132.323c-1.515-.06-1.94-.06-3.517.06l-.364-.364c.061-2.91.061-5.459.061-7.52 0-1.275 0-16.254-.425-24.623l.425-.425c1.395.06 1.88.06 3.518-.061l.363.425v1.334c-.06 2.729-.06 5.397-.06 8.126 0 8.855.182 15.77.363 22.684l-.364.364M315.811 132.323c-.545 0-1.151-.06-1.759-.06-.423 0-2.486.12-2.85.12l-.485-.243c-1.576-2.486-3.032-4.972-4.548-7.46l-12.494-21.349.121 6.308c.121 14.981.183 16.68.365 22.259l-.365.425c-1.272 0-1.759 0-3.032.06l-.364-.364c0-.909 0-20.924-.121-25.534 0-1.03-.182-6.245-.182-6.609l.364-.425c1.274 0 3.335-.061 4.609-.061l.485.304c1.456 2.244 1.82 2.85 4.852 8.005 1.94 3.335 3.882 6.61 5.883 9.885l6.307 10.857v-6.247c-.06-5.338-.12-15.648-.425-22.318l.364-.425c1.456 0 1.578 0 2.911-.061l.425.364c-.06 2.85-.06 5.337-.06 7.399 0 8.43.06 16.86.424 24.806l-.425.364M323.696 126.44c1.698 2.607 5.155 3.578 7.641 3.578 4.368 0 7.643-2.487 7.643-6.247 0-2.609-1.577-4.004-3.821-5.156-.91-.485-5.398-2.486-6.369-3.033-2.546-1.212-6.246-3.213-6.246-8.065 0-4.427 3.396-8.673 10.674-8.673 2.972 0 5.882.788 8.49 2.305l.182.425c-.242 1.393-.242 1.516-.424 2.85l-.546.242c-1.395-1.212-3.639-2.79-7.399-2.79-6.792 0-7.156 4.549-7.156 5.58 0 2.669 2.244 4.003 5.155 5.338l3.396 1.515c3.154 1.335 7.945 3.457 7.945 9.278 0 5.157-4.185 9.403-11.221 9.403-4.607 0-7.276-1.638-8.793-2.548l-.182-.546c.061-.485.182-.97.304-1.455.06-.606.181-1.214.242-1.82l.485-.181M359.418 132.263c-1.334.06-1.517.06-3.457.12l-.364-.364c.06-3.335.06-6.489.06-9.825 0-4.185 0-16.254-.06-19.65-2.123 0-7.58.121-9.886.182l-.364-.425c.06-.97.122-1.335.182-2.668l.486-.304c.728 0 4.305.122 5.155.122h10.916c3.881 0 5.823-.061 7.035-.122l.425.365a38.368 38.368 0 0 0-.244 2.729l-.423.303c-1.578-.061-3.154-.122-5.155-.182-.668 0-3.943-.061-4.306-.061-.062 1.395-.062 2.85-.062 4.246 0 3.032.062 6.125.123 9.217.06 3.094.06 6.248.121 9.342 0 .97.181 5.578.181 6.61l-.363.365M378.279 132.323c-1.516-.06-1.94-.06-3.518.06l-.364-.364c.06-2.91.06-5.459.06-7.52 0-1.275 0-16.254-.423-24.623l.424-.425c1.396.06 1.88.06 3.517-.061l.365.425v1.334c-.061 2.729-.061 5.397-.061 8.126 0 8.855.182 15.77.364 22.684l-.364.364M397.261 132.263c-1.334.06-1.516.06-3.457.12l-.364-.364c.061-3.335.061-6.489.061-9.825 0-4.185 0-16.254-.061-19.65-2.122 0-7.58.121-9.885.182l-.364-.425c.062-.97.122-1.335.182-2.668l.485-.304c.728 0 4.306.122 5.155.122h10.917c3.881 0 5.823-.061 7.035-.122l.425.365a36.969 36.969 0 0 0-.242 2.729l-.425.303a542.516 542.516 0 0 0-5.155-.182c-.668 0-3.943-.061-4.307-.061-.06 1.395-.06 2.85-.06 4.246 0 3.032.06 6.125.12 9.217.062 3.094.062 6.248.123 9.342 0 .97.181 5.578.181 6.61l-.364.365M436.439 99.754v.727c-.059 5.763-.059 6.429-.059 11.888v6.065c-.061 3.396-.122 6.065-1.214 8.43-1.88 4.185-6.307 6.126-11.158 6.126-3.033 0-5.763-.789-7.643-2.184-4.184-3.032-4.124-8.006-4.124-11.706v-2.729c0-3.638 0-13.16-.06-16.495l.364-.425c1.759 0 1.819 0 3.578-.061l.363.364c-.181 5.822-.302 11.584-.302 17.406 0 5.58.121 8.673 2.305 10.735 1.212 1.091 3.275 1.88 6.004 1.88 3.092 0 5.882-1.091 7.277-3.82 1.031-2.064 1.091-4.671 1.091-9.584 0-5.518-.06-11.037-.242-16.556l.364-.364c1.456 0 1.698 0 3.092-.061l.364.364M455.361 132.263c-1.334.06-1.516.06-3.457.12l-.364-.364c.061-3.335.061-6.489.061-9.825 0-4.185 0-16.254-.061-19.65-2.123 0-7.58.121-9.885.182l-.364-.425c.062-.97.122-1.335.183-2.668l.484-.304c.728 0 4.307.122 5.155.122h10.917c3.881 0 5.823-.061 7.036-.122l.424.365a37.661 37.661 0 0 0-.242 2.729l-.425.303a542.516 542.516 0 0 0-5.155-.182c-.668 0-3.943-.061-4.307-.061-.06 1.395-.06 2.85-.06 4.246 0 3.032.06 6.125.122 9.217.06 3.094.06 6.248.12 9.342 0 .97.182 5.578.182 6.61l-.364.365M488.839 132.323h-14.13c-1.578.06-2.426.12-4.124.18l-.364-.423v-1.274c.06-1.941.06-3.942.06-5.884 0-8.187-.121-16.98-.425-25.168l.425-.364c1.274.061 2.365.061 3.578.061h8.189a191.5 191.5 0 0 0 6.67-.122l.425.365c-.122 1.212-.122 1.516-.183 2.668l-.424.364c-2.426-.122-3.397-.122-12.372-.182l-2.244-.062c0 3.58 0 7.703.061 11.22h4.123c1.516 0 3.094 0 4.61-.06 3.154 0 3.396 0 5.397-.06l.303.363c-.12 1.214-.12 1.335-.12 2.547l-.425.303c-2.183-.12-3.639-.12-9.885-.06h-3.943c0 2.184.122 11.585.183 12.494h3.639c4.305 0 4.973 0 11.22-.182l.302.425c-.121 1.152-.121 1.273-.121 2.547l-.425.303M514.651 132.826c-5.373 0-8.228-2.981-8.228-8.23 0-4.912 2.435-14.275 11.882-14.275 5.835 0 8.144 3.737 8.144 8.229 0 1.47-.251 2.94-.671 4.409-.545 2.015-2.73 9.867-11.127 9.867zm9.07-14.486c0-4.492-3.023-5.92-5.501-5.92-7.894 0-9.111 10.076-9.111 12.26 0 3.528 1.931 6.005 5.667 6.005 1.429 0 2.899-.21 4.41-1.427 2.77-2.227 3.695-5.963 4.03-7.39.295-1.177.505-2.352.505-3.528M536.694 112.924c-2.099 9.111-2.56 11.252-3.989 19.105l-.335.294-2.351.083-.252-.251 1.973-8.819 2.267-10.412-3.148.084-.254-.253.463-1.805.336-.251 3.065.084.63-3.107c.503-2.267.671-3.191 1.05-4.115.63-1.721 1.846-3.946 5.793-3.946.883 0 1.513.125 2.268.251l.251.335-.42 1.806-.335.253c-.588-.169-1.218-.295-1.848-.295-.84 0-1.678.252-2.224.797-.84.8-1.134 1.933-1.974 5.334l-.546 2.686 4.157-.083.252.335-.547 1.553-.293.337h-3.99M610.184 234.755c1.699 2.608 5.156 3.578 7.642 3.578 4.367 0 7.642-2.487 7.642-6.247 0-2.608-1.578-4.002-3.822-5.155-.908-.484-5.397-2.486-6.367-3.03-2.548-1.215-6.246-3.217-6.246-8.068 0-4.428 3.395-8.673 10.673-8.673 2.972 0 5.883.789 8.49 2.305l.183.425c-.243 1.395-.243 1.515-.425 2.85l-.545.243c-1.395-1.213-3.639-2.79-7.4-2.79-6.793 0-7.156 4.548-7.156 5.58 0 2.667 2.243 4.002 5.155 5.336l3.396 1.516c3.154 1.334 7.945 3.458 7.945 9.28 0 5.155-4.185 9.4-11.22 9.4-4.61 0-7.278-1.637-8.794-2.547l-.182-.545c.06-.487.182-.972.303-1.457.06-.607.183-1.212.243-1.818l.485-.183M657.186 240.637h-14.131c-1.576.062-2.426.122-4.124.183l-.364-.425v-1.274c.06-1.94.06-3.941.06-5.882 0-8.187-.12-16.981-.425-25.169l.425-.364c1.274.06 2.367.06 3.58.06h8.185c2.73 0 4.792-.06 6.672-.12l.425.364c-.12 1.211-.12 1.516-.182 2.668l-.425.363c-2.426-.12-3.396-.12-12.372-.181l-2.243-.061c0 3.577 0 7.702.06 11.22h4.124c1.516 0 3.094 0 4.61-.06 3.153 0 3.395 0 5.398-.061l.302.363c-.121 1.214-.121 1.334-.121 2.548l-.424.302c-2.184-.12-3.639-.12-9.886-.06h-3.943c0 2.184.123 11.584.183 12.494h3.639c4.306 0 4.972 0 11.22-.183l.303.425c-.12 1.153-.12 1.273-.12 2.548l-.426.302M667.071 207.887c.183 0 9.219-.12 9.461-.12 2.548 0 5.034.12 7.157 1.032 2.911 1.334 4.791 4.184 4.791 7.641 0 4.972-3.943 8.49-9.34 9.157l3.154 3.88c3.821 4.672 4.488 5.46 8.793 10.677l-.242.483h-2.608c-.546 0-1.152.062-1.698.062l-.484-.243c-.911-1.214-1.881-2.426-2.791-3.638-1.273-1.638-2.608-3.215-3.882-4.792a1145.94 1145.94 0 0 0-4.79-6.005c-1.577.062-2.002.062-3.7.062 0 4.73.122 9.46.303 14.19l-.364.364c-1.516 0-1.88 0-3.457.062l-.364-.364c.061-2.486.061-5.034.061-7.521 0-8.186-.061-16.374-.425-24.563l.425-.364zm12.615 14.557c1.578-.425 4.851-1.7 4.851-5.884 0-2.001-.787-3.395-1.757-4.245-1.577-1.394-4.003-1.516-7.219-1.516-1.334 0-3.152.061-4.73.122v12.129c4.61 0 6.854 0 8.855-.607M710.071 240.637c-2.124 0-2.609 0-4.427.062l-.425-.364c-.972-2.73-2.367-7.218-3.275-10.008l-4.003-12.31-1.637-4.913c-.425-1.334-1.153-3.458-1.578-4.791l.244-.426c2.121-.12 2.364-.12 3.759-.24l.425.302c1.152 4.427 2.182 7.58 3.517 11.947l5.459 17.285 6.549-20.68c.971-3.094 1.152-3.64 2.547-8.491l.425-.304c1.516.06 1.88.06 3.335 0l.304.424c-.789 2.244-1.093 3.094-3.82 10.979l-3.7 11.037c-1.396 4.184-1.578 4.792-3.335 10.128l-.364.363M732.51 240.637c-1.516-.06-1.941-.06-3.518.062l-.365-.364c.062-2.912.062-5.459.062-7.521 0-1.273 0-16.254-.425-24.623l.425-.425c1.395.061 1.88.061 3.518-.06l.364.424v1.335c-.061 2.729-.061 5.398-.061 8.128 0 8.854.181 15.767.364 22.68l-.364.364M767.989 234.938c-.183 1.636-.183 1.94-.244 3.335l-.241.485c-1.88 1.395-4.549 2.547-9.098 2.547-2.668 0-7.096-.365-10.917-3.943-3.578-3.274-5.155-8.066-5.155-12.978 0-9.339 5.762-17.285 16.436-17.285 4.549 0 7.095 1.395 8.551 2.183l.304.426c-.244 1.09-.304 1.333-.485 2.79l-.486.304c-1.577-1.032-3.942-2.548-7.884-2.548-8.611 0-12.434 7.156-12.434 13.948 0 7.035 4.064 13.888 12.615 13.888 4.489 0 6.55-1.698 8.553-3.397l.485.245M796.128 240.637h-14.13c-1.577.062-2.427.122-4.124.183l-.364-.425v-1.274c.061-1.94.061-3.941.061-5.882 0-8.187-.122-16.981-.425-25.169l.425-.364c1.273.06 2.364.06 3.578.06h8.187c2.729 0 4.792-.06 6.672-.12l.425.364c-.123 1.211-.123 1.516-.183 2.668l-.425.363c-2.425-.12-3.396-.12-12.371-.181l-2.245-.061c0 3.577 0 7.702.061 11.22h4.124c1.516 0 3.092 0 4.608-.06 3.154 0 3.398 0 5.398-.061l.305.363c-.123 1.214-.123 1.334-.123 2.548l-.425.302c-2.182-.12-3.638-.12-9.885-.06h-3.942c0 2.184.121 11.584.182 12.494h3.64c4.304 0 4.973 0 11.22-.183l.303.425c-.122 1.153-.122 1.273-.122 2.548l-.425.302M804.497 234.755c1.7 2.608 5.155 3.578 7.642 3.578 4.367 0 7.641-2.487 7.641-6.247 0-2.608-1.575-4.002-3.82-5.155-.91-.484-5.398-2.486-6.368-3.03-2.547-1.215-6.247-3.217-6.247-8.068 0-4.428 3.397-8.673 10.675-8.673 2.971 0 5.883.789 8.49 2.305l.181.425c-.242 1.395-.242 1.515-.424 2.85l-.546.243c-1.394-1.213-3.639-2.79-7.399-2.79-6.792 0-7.157 4.548-7.157 5.58 0 2.667 2.245 4.002 5.155 5.336l3.397 1.516c3.154 1.334 7.945 3.458 7.945 9.28 0 5.155-4.185 9.4-11.22 9.4-4.608 0-7.277-1.637-8.793-2.547l-.183-.545c.06-.487.183-.972.304-1.457.06-.607.181-1.212.242-1.818l.485-.183" fill="#231f20"/>
</svg>
